<svg width="242" height="135" viewBox="0 0 242 135" fill="none" xmlns="http://www.w3.org/2000/svg">
<g clip-path="url(#clip0)">
<path d="M15.7158 31.672C15.7158 32.8107 15.4545 33.856 14.9318 34.808C14.4091 35.7413 13.6065 36.4973 12.5238 37.076C11.4411 37.6547 10.0971 37.944 8.49181 37.944H5.52381V45H0.735812V25.344H8.49181C10.0598 25.344 11.3851 25.6147 12.4678 26.156C13.5505 26.6973 14.3625 27.444 14.9038 28.396C15.4451 29.348 15.7158 30.44 15.7158 31.672ZM8.12781 34.136C9.04248 34.136 9.72381 33.9213 10.1718 33.492C10.6198 33.0627 10.8438 32.456 10.8438 31.672C10.8438 30.888 10.6198 30.2813 10.1718 29.852C9.72381 29.4227 9.04248 29.208 8.12781 29.208H5.52381V34.136H8.12781ZM25.3205 45.224C23.7898 45.224 22.4085 44.8973 21.1765 44.244C19.9631 43.5907 19.0018 42.6573 18.2925 41.444C17.6018 40.2307 17.2565 38.812 17.2565 37.188C17.2565 35.5827 17.6111 34.1733 18.3205 32.96C19.0298 31.728 20.0005 30.7853 21.2325 30.132C22.4645 29.4787 23.8458 29.152 25.3765 29.152C26.9071 29.152 28.2885 29.4787 29.5205 30.132C30.7525 30.7853 31.7231 31.728 32.4325 32.96C33.1418 34.1733 33.4965 35.5827 33.4965 37.188C33.4965 38.7933 33.1325 40.212 32.4045 41.444C31.6951 42.6573 30.7151 43.5907 29.4645 44.244C28.2325 44.8973 26.8511 45.224 25.3205 45.224ZM25.3205 41.08C26.2351 41.08 27.0098 40.744 27.6445 40.072C28.2978 39.4 28.6245 38.4387 28.6245 37.188C28.6245 35.9373 28.3071 34.976 27.6725 34.304C27.0565 33.632 26.2911 33.296 25.3765 33.296C24.4431 33.296 23.6685 33.632 23.0525 34.304C22.4365 34.9573 22.1285 35.9187 22.1285 37.188C22.1285 38.4387 22.4271 39.4 23.0245 40.072C23.6405 40.744 24.4058 41.08 25.3205 41.08ZM55.9726 29.208C57.9139 29.208 59.4539 29.796 60.5926 30.972C61.7499 32.148 62.3286 33.7813 62.3286 35.872V45H57.5686V36.516C57.5686 35.508 57.2979 34.7333 56.7566 34.192C56.2339 33.632 55.5059 33.352 54.5726 33.352C53.6392 33.352 52.9019 33.632 52.3606 34.192C51.8379 34.7333 51.5766 35.508 51.5766 36.516V45H46.8166V36.516C46.8166 35.508 46.5459 34.7333 46.0046 34.192C45.4819 33.632 44.7539 33.352 43.8206 33.352C42.8872 33.352 42.1499 33.632 41.6086 34.192C41.0859 34.7333 40.8246 35.508 40.8246 36.516V45H36.0366V29.376H40.8246V31.336C41.3099 30.6827 41.9446 30.1693 42.7286 29.796C43.5126 29.404 44.3992 29.208 45.3886 29.208C46.5646 29.208 47.6099 29.46 48.5246 29.964C49.4579 30.468 50.1859 31.1867 50.7086 32.12C51.2499 31.2613 51.9872 30.5613 52.9206 30.02C53.8539 29.4787 54.8712 29.208 55.9726 29.208ZM72.7892 45.224C71.2585 45.224 69.8772 44.8973 68.6452 44.244C67.4319 43.5907 66.4705 42.6573 65.7612 41.444C65.0705 40.2307 64.7252 38.812 64.7252 37.188C64.7252 35.5827 65.0799 34.1733 65.7892 32.96C66.4985 31.728 67.4692 30.7853 68.7012 30.132C69.9332 29.4787 71.3145 29.152 72.8452 29.152C74.3759 29.152 75.7572 29.4787 76.9892 30.132C78.2212 30.7853 79.1919 31.728 79.9012 32.96C80.6105 34.1733 80.9652 35.5827 80.9652 37.188C80.9652 38.7933 80.6012 40.212 79.8732 41.444C79.1639 42.6573 78.1839 43.5907 76.9332 44.244C75.7012 44.8973 74.3199 45.224 72.7892 45.224ZM72.7892 41.08C73.7039 41.08 74.4785 40.744 75.1132 40.072C75.7665 39.4 76.0932 38.4387 76.0932 37.188C76.0932 35.9373 75.7759 34.976 75.1412 34.304C74.5252 33.632 73.7599 33.296 72.8452 33.296C71.9119 33.296 71.1372 33.632 70.5212 34.304C69.9052 34.9573 69.5972 35.9187 69.5972 37.188C69.5972 38.4387 69.8959 39.4 70.4932 40.072C71.1092 40.744 71.8745 41.08 72.7892 41.08ZM82.5533 37.16C82.5533 35.5547 82.852 34.1453 83.4493 32.932C84.0653 31.7187 84.896 30.7853 85.9413 30.132C86.9867 29.4787 88.1533 29.152 89.4413 29.152C90.468 29.152 91.4013 29.3667 92.2413 29.796C93.1 30.2253 93.772 30.804 94.2573 31.532V24.28H99.0453V45H94.2573V42.76C93.8093 43.5067 93.1653 44.104 92.3253 44.552C91.504 45 90.5427 45.224 89.4413 45.224C88.1533 45.224 86.9867 44.8973 85.9413 44.244C84.896 43.572 84.0653 42.6293 83.4493 41.416C82.852 40.184 82.5533 38.7653 82.5533 37.16ZM94.2573 37.188C94.2573 35.9933 93.9213 35.0507 93.2493 34.36C92.596 33.6693 91.7933 33.324 90.8413 33.324C89.8893 33.324 89.0773 33.6693 88.4053 34.36C87.752 35.032 87.4253 35.9653 87.4253 37.16C87.4253 38.3547 87.752 39.3067 88.4053 40.016C89.0773 40.7067 89.8893 41.052 90.8413 41.052C91.7933 41.052 92.596 40.7067 93.2493 40.016C93.9213 39.3253 94.2573 38.3827 94.2573 37.188ZM109.621 45.224C108.091 45.224 106.709 44.8973 105.477 44.244C104.264 43.5907 103.303 42.6573 102.593 41.444C101.903 40.2307 101.557 38.812 101.557 37.188C101.557 35.5827 101.912 34.1733 102.621 32.96C103.331 31.728 104.301 30.7853 105.533 30.132C106.765 29.4787 108.147 29.152 109.677 29.152C111.208 29.152 112.589 29.4787 113.821 30.132C115.053 30.7853 116.024 31.728 116.733 32.96C117.443 34.1733 117.797 35.5827 117.797 37.188C117.797 38.7933 117.433 40.212 116.705 41.444C115.996 42.6573 115.016 43.5907 113.765 44.244C112.533 44.8973 111.152 45.224 109.621 45.224ZM109.621 41.08C110.536 41.08 111.311 40.744 111.945 40.072C112.599 39.4 112.925 38.4387 112.925 37.188C112.925 35.9373 112.608 34.976 111.973 34.304C111.357 33.632 110.592 33.296 109.677 33.296C108.744 33.296 107.969 33.632 107.353 34.304C106.737 34.9573 106.429 35.9187 106.429 37.188C106.429 38.4387 106.728 39.4 107.325 40.072C107.941 40.744 108.707 41.08 109.621 41.08ZM125.126 31.98C125.686 31.1213 126.386 30.4493 127.226 29.964C128.066 29.46 128.999 29.208 130.026 29.208V34.276H128.71C127.515 34.276 126.619 34.5373 126.022 35.06C125.424 35.564 125.126 36.46 125.126 37.748V45H120.338V29.376H125.126V31.98ZM139.426 45.224C137.895 45.224 136.514 44.8973 135.282 44.244C134.069 43.5907 133.107 42.6573 132.398 41.444C131.707 40.2307 131.362 38.812 131.362 37.188C131.362 35.5827 131.717 34.1733 132.426 32.96C133.135 31.728 134.106 30.7853 135.338 30.132C136.57 29.4787 137.951 29.152 139.482 29.152C141.013 29.152 142.394 29.4787 143.626 30.132C144.858 30.7853 145.829 31.728 146.538 32.96C147.247 34.1733 147.602 35.5827 147.602 37.188C147.602 38.7933 147.238 40.212 146.51 41.444C145.801 42.6573 144.821 43.5907 143.57 44.244C142.338 44.8973 140.957 45.224 139.426 45.224ZM139.426 41.08C140.341 41.08 141.115 40.744 141.75 40.072C142.403 39.4 142.73 38.4387 142.73 37.188C142.73 35.9373 142.413 34.976 141.778 34.304C141.162 33.632 140.397 33.296 139.482 33.296C138.549 33.296 137.774 33.632 137.158 34.304C136.542 34.9573 136.234 35.9187 136.234 37.188C136.234 38.4387 136.533 39.4 137.13 40.072C137.746 40.744 138.511 41.08 139.426 41.08ZM15.7718 69L13.9518 67.236C12.1411 68.6173 9.97581 69.308 7.45581 69.308C5.94381 69.308 4.62781 69.0653 3.50781 68.58C2.38781 68.076 1.51981 67.376 0.903812 66.48C0.306479 65.5653 0.0078125 64.5013 0.0078125 63.288C0.0078125 62.056 0.334479 60.9453 0.987812 59.956C1.65981 58.948 2.65848 58.1267 3.98381 57.492C3.49848 56.8947 3.15314 56.3253 2.94781 55.784C2.74248 55.224 2.63981 54.6173 2.63981 53.964C2.63981 53.0307 2.88248 52.1813 3.36781 51.416C3.85314 50.6507 4.55314 50.0533 5.46781 49.624C6.40114 49.176 7.50248 48.952 8.77181 48.952C10.0598 48.952 11.1518 49.1853 12.0478 49.652C12.9438 50.1187 13.6158 50.744 14.0638 51.528C14.5118 52.312 14.7171 53.1707 14.6798 54.104H10.1718C10.1905 53.6 10.0598 53.2173 9.77981 52.956C9.51848 52.676 9.16381 52.536 8.71581 52.536C8.26781 52.536 7.89448 52.6667 7.59581 52.928C7.29714 53.1893 7.14781 53.5253 7.14781 53.936C7.14781 54.328 7.26914 54.7387 7.51181 55.168C7.77314 55.5973 8.17448 56.092 8.71581 56.652L13.5038 61.328C13.5411 61.2347 13.5878 61.1227 13.6438 60.992C13.7185 60.8613 13.7931 60.712 13.8678 60.544L14.9038 58.78H19.6918L18.3478 61.216C17.8438 62.3173 17.2651 63.3627 16.6118 64.352L21.3438 69H15.7718ZM7.67981 65.444C8.93048 65.444 10.0411 65.0893 11.0118 64.38L6.64381 60.152C5.29981 60.8427 4.62781 61.776 4.62781 62.952C4.62781 63.6613 4.89848 64.2587 5.43981 64.744C5.99981 65.2107 6.74648 65.444 7.67981 65.444ZM43.1492 49.344V53.18H37.9412V69H33.1532V53.18H27.9452V49.344H43.1492ZM52.6642 69.224C51.1335 69.224 49.7522 68.8973 48.5202 68.244C47.3069 67.5907 46.3455 66.6573 45.6362 65.444C44.9455 64.2307 44.6002 62.812 44.6002 61.188C44.6002 59.5827 44.9549 58.1733 45.6642 56.96C46.3735 55.728 47.3442 54.7853 48.5762 54.132C49.8082 53.4787 51.1895 53.152 52.7202 53.152C54.2509 53.152 55.6322 53.4787 56.8642 54.132C58.0962 54.7853 59.0669 55.728 59.7762 56.96C60.4855 58.1733 60.8402 59.5827 60.8402 61.188C60.8402 62.7933 60.4762 64.212 59.7482 65.444C59.0389 66.6573 58.0589 67.5907 56.8082 68.244C55.5762 68.8973 54.1949 69.224 52.6642 69.224ZM52.6642 65.08C53.5789 65.08 54.3535 64.744 54.9882 64.072C55.6415 63.4 55.9682 62.4387 55.9682 61.188C55.9682 59.9373 55.6509 58.976 55.0162 58.304C54.4002 57.632 53.6349 57.296 52.7202 57.296C51.7869 57.296 51.0122 57.632 50.3962 58.304C49.7802 58.9573 49.4722 59.9187 49.4722 61.188C49.4722 62.4387 49.7709 63.4 50.3682 64.072C50.9842 64.744 51.7495 65.08 52.6642 65.08ZM68.3619 61.16C68.3619 59.5547 68.6606 58.1453 69.2579 56.932C69.8739 55.7187 70.7046 54.7853 71.7499 54.132C72.7953 53.4787 73.9619 53.152 75.2499 53.152C76.2766 53.152 77.2099 53.3667 78.0499 53.796C78.9086 54.2253 79.5806 54.804 80.0659 55.532V48.28H84.8539V69H80.0659V66.76C79.6179 67.5067 78.9739 68.104 78.1339 68.552C77.3126 69 76.3513 69.224 75.2499 69.224C73.9619 69.224 72.7953 68.8973 71.7499 68.244C70.7046 67.572 69.8739 66.6293 69.2579 65.416C68.6606 64.184 68.3619 62.7653 68.3619 61.16ZM80.0659 61.188C80.0659 59.9933 79.7299 59.0507 79.0579 58.36C78.4046 57.6693 77.6019 57.324 76.6499 57.324C75.6979 57.324 74.8859 57.6693 74.2139 58.36C73.5606 59.032 73.2339 59.9653 73.2339 61.16C73.2339 62.3547 73.5606 63.3067 74.2139 64.016C74.8859 64.7067 75.6979 65.052 76.6499 65.052C77.6019 65.052 78.4046 64.7067 79.0579 64.016C79.7299 63.3253 80.0659 62.3827 80.0659 61.188ZM95.4298 69.224C93.8992 69.224 92.5178 68.8973 91.2858 68.244C90.0725 67.5907 89.1112 66.6573 88.4018 65.444C87.7112 64.2307 87.3658 62.812 87.3658 61.188C87.3658 59.5827 87.7205 58.1733 88.4298 56.96C89.1392 55.728 90.1098 54.7853 91.3418 54.132C92.5738 53.4787 93.9552 53.152 95.4858 53.152C97.0165 53.152 98.3978 53.4787 99.6298 54.132C100.862 54.7853 101.833 55.728 102.542 56.96C103.251 58.1733 103.606 59.5827 103.606 61.188C103.606 62.7933 103.242 64.212 102.514 65.444C101.805 66.6573 100.825 67.5907 99.5738 68.244C98.3418 68.8973 96.9605 69.224 95.4298 69.224ZM95.4298 65.08C96.3445 65.08 97.1192 64.744 97.7538 64.072C98.4072 63.4 98.7338 62.4387 98.7338 61.188C98.7338 59.9373 98.4165 58.976 97.7818 58.304C97.1658 57.632 96.4005 57.296 95.4858 57.296C94.5525 57.296 93.7778 57.632 93.1618 58.304C92.5458 58.9573 92.2378 59.9187 92.2378 61.188C92.2378 62.4387 92.5365 63.4 93.1338 64.072C93.7498 64.744 94.5152 65.08 95.4298 65.08Z" fill="white"/>
<path d="M214.699 13.9515C213.268 11.3632 212.489 7.1715 213.408 4.65125C214.724 1.04162 211.073 0.118749 209.314 2.77675C207.889 4.92987 207.878 8.96775 208.87 13.9514C203.003 10.845 200.035 13.8407 193.498 13.6594C193.498 13.6594 194.428 15.5697 197.082 17.202C197.082 17.202 197.082 17.202 197.082 17.2021C198.553 18.1066 200.553 18.9258 203.219 19.2873C202.248 22.258 202.141 24.0824 203.572 27.1369C205.477 24.9369 209.513 22.8994 212.847 21.8421C214.858 25.1981 217.921 26.6999 220.791 28.4755C222.208 25.5705 222.041 21.1613 220.351 19.2873C223.137 18.9095 225.12 17.992 226.511 16.9894C228.851 15.3027 229.516 13.3757 229.516 13.3757C222.794 13.3831 221.233 9.50087 214.699 13.9515Z" fill="#87DD60"/>
<path d="M197.083 17.2021C197.083 17.2023 197.083 17.2023 197.083 17.2021V17.2021ZM212.848 21.8421C214.858 25.1981 217.922 26.6999 220.792 28.4755C222.209 25.5705 222.042 21.1613 220.351 19.2873C223.138 18.9095 225.12 17.992 226.511 16.9893C230.848 17.2876 240.682 24.8495 240.682 37.5146C240.682 50.1798 227.489 62.7498 211.529 62.7498C195.57 62.7498 182.889 50.109 182.889 37.5148C182.889 24.9208 192.78 17.7629 197.083 17.202C198.554 18.1066 200.554 18.9259 203.219 19.2873C202.249 22.258 202.141 24.0824 203.573 27.1369C205.478 24.937 209.513 22.8994 212.848 21.8421Z" fill="#FD4848"/>
<path d="M214.264 57.0138C214.257 57.0145 214.235 57.0172 214.227 57.0181C213.417 57.1146 212.88 57.6324 213.023 58.1754C213.151 58.6597 213.782 59 214.492 59C214.578 59 214.666 58.9949 214.754 58.9845C215.566 58.8938 216.115 58.3791 215.98 57.8349C215.844 57.2907 215.075 56.923 214.264 57.0138Z" fill="black"/>
<path d="M225.925 52.3078C223.943 54.0431 221.503 55.45 218.87 56.376C218.205 56.6098 217.844 57.3713 218.065 58.077C218.241 58.6421 218.736 59 219.268 59C219.4 59 219.535 58.9778 219.667 58.9314C222.595 57.9019 225.317 56.3294 227.539 54.3845C228.079 53.9115 228.156 53.0632 227.71 52.4897C227.265 51.916 226.465 51.8346 225.925 52.3078Z" fill="black"/>
<path d="M185.873 25.7437C186.215 25.9169 186.603 26 186.986 26C187.624 26 188.249 25.7715 188.634 25.3474L188.651 25.3286C189.272 24.6516 189.042 23.726 188.137 23.2612C187.232 22.7964 185.994 22.9686 185.373 23.6456L185.343 23.6784C184.727 24.3583 184.964 25.2828 185.873 25.7437Z" fill="black"/>
<path d="M241.469 32.8135C241.329 32.1453 240.641 31.7107 239.932 31.8425C239.224 31.9743 238.763 32.6228 238.903 33.2909C239.226 34.8375 239.384 36.3365 239.384 37.8734C239.386 43.6131 236.428 49.5298 231.267 54.1069C225.867 58.8961 218.934 61.5337 211.746 61.5337C204.6 61.5337 197.763 58.8908 192.493 54.092C187.487 49.5331 184.616 43.6216 184.616 37.873C184.616 34.9994 185.171 32.2482 186.266 29.6958C186.537 29.0645 186.214 28.3457 185.544 28.0903C184.874 27.8349 184.112 28.1396 183.841 28.771C182.62 31.6187 182 34.6811 182 37.8732C182 44.287 185.162 50.845 190.676 55.866C196.436 61.1112 203.918 64 211.746 64C215.753 64 219.694 63.2505 223.457 61.7724C227.011 60.3767 230.242 58.402 233.059 55.9033C238.744 50.862 242.002 44.29 242 37.8727C241.999 36.1738 241.825 34.5189 241.469 32.8135Z" fill="black"/>
<path d="M238.088 29.9946L238.103 30.0333C238.328 30.631 238.898 31 239.504 31C239.678 31 239.856 30.9695 240.029 30.9049C240.802 30.6163 241.195 29.7589 240.904 28.9893C240.904 28.9887 240.902 28.9823 240.902 28.9817C240.622 28.2088 239.767 27.8105 238.989 28.0885C238.212 28.3666 237.809 29.2213 238.088 29.9946Z" fill="black"/>
<path d="M189.33 23.3072C189.679 23.3072 190.027 23.1779 190.289 22.9209C190.535 22.6786 190.861 22.3692 191.081 22.1688C193.403 20.0582 195.58 19.0107 196.93 18.6935C198.197 19.4085 199.773 20.0485 201.715 20.4579C201.085 22.8967 201.143 24.9377 202.532 27.8999C202.72 28.2996 203.112 28.5786 203.569 28.6374C204.026 28.6963 204.483 28.5263 204.776 28.1883C206.368 26.3508 209.736 24.5992 212.554 23.5755C214.419 26.1936 216.868 27.6616 219.243 29.0863C219.629 29.3178 220.028 29.5572 220.413 29.7953C220.632 29.9302 220.885 30 221.14 30C221.263 30 221.387 29.9839 221.507 29.9509C221.878 29.8499 222.185 29.6009 222.347 29.2684C223.67 26.559 223.76 22.8894 222.744 20.3682C224.621 19.9174 226.104 19.2294 227.269 18.4674C229.46 18.9034 233.562 21.4344 236.529 26.118C236.778 26.512 237.219 26.7301 237.671 26.7301C237.904 26.7301 238.14 26.6719 238.354 26.5498C238.984 26.1911 239.188 25.4161 238.81 24.8189C236.788 21.6273 234.466 19.581 232.875 18.4262C231.738 17.6019 230.607 16.9614 229.54 16.5273C230.755 15.1697 231.181 13.9968 231.217 13.892C231.35 13.5075 231.28 13.0859 231.03 12.7584C230.779 12.4312 230.379 12.2377 229.953 12.2377C229.945 12.238 229.94 12.2377 229.933 12.2377C227.73 12.2377 226.15 11.7954 224.621 11.3678C222.014 10.6385 219.539 9.94577 215.565 12.2073C214.62 9.79489 214.32 6.80468 214.94 5.10665C215.9 2.4766 214.759 0.870167 213.49 0.293646C212.019 -0.374968 209.805 0.041465 208.421 2.13145C207.084 4.1499 206.738 7.45247 207.387 11.9666C204.378 10.9906 201.967 11.4437 199.445 11.9178C197.693 12.2471 195.882 12.5873 193.611 12.5246C193.151 12.5116 192.716 12.7258 192.462 13.0904C192.208 13.4549 192.171 13.918 192.365 14.3146C192.413 14.4149 192.995 15.5687 194.427 16.8851C192.731 17.6305 190.896 18.842 189.24 20.3475C188.997 20.5684 188.64 20.9067 188.372 21.1704C187.863 21.6722 187.878 22.4708 188.407 22.9542C188.665 23.1899 188.998 23.3072 189.33 23.3072ZM199.962 14.3928C202.808 13.8579 204.905 13.4653 207.956 14.933C208.267 16.0184 208.712 17.2024 209.239 18.3272C209.459 18.7977 209.946 19.0774 210.455 19.0774C210.636 19.0774 210.819 19.0424 210.994 18.9686C211.666 18.6861 211.969 17.9407 211.671 17.3039C211.129 16.1457 210.667 14.8755 210.4 13.8139C209.422 8.88835 209.519 5.21666 210.674 3.4736C211.251 2.60225 212.009 2.41895 212.34 2.56895C212.633 2.70229 212.785 3.29521 212.425 4.28173C211.348 7.23499 212.263 11.8294 213.775 14.6045C214.04 15.2291 214.382 15.9185 214.765 16.6039C215.004 17.0309 215.465 17.2743 215.941 17.2743C216.152 17.2743 216.365 17.2268 216.564 17.1268C217.213 16.8002 217.46 16.0365 217.116 15.4211C216.949 15.123 216.792 14.8258 216.648 14.5357C219.775 12.6447 221.368 13.0883 223.868 13.788C224.947 14.0898 226.208 14.4428 227.748 14.6296C227.375 15.0841 226.871 15.5919 226.201 16.0835C226.14 16.1206 226.082 16.162 226.028 16.2079C224.786 17.0772 223.011 17.8772 220.507 18.2165C220.026 18.2816 219.621 18.5897 219.45 19.0205C219.279 19.4513 219.369 19.9362 219.685 20.2859C220.803 21.524 221.078 24.4339 220.442 26.8199C218.056 25.3875 215.816 23.9942 214.273 21.4203C214.031 21.0171 213.584 20.782 213.116 20.782C212.976 20.782 212.834 20.803 212.695 20.8472C210.135 21.6581 206.706 23.1819 204.28 25.1143C203.749 23.288 203.991 21.8885 204.661 19.8388C204.777 19.486 204.723 19.103 204.515 18.7908C204.307 18.4785 203.964 18.2686 203.579 18.2164C201.157 17.8884 199.345 17.1657 198.015 16.3704C197.95 16.3219 197.881 16.2794 197.807 16.2431C197.128 15.8172 196.582 15.3757 196.151 14.9668C197.567 14.8429 198.813 14.6087 199.962 14.3928Z" fill="black"/>
<path d="M135.04 91.675L141.751 83.2045C142.131 82.7247 142.069 82.0126 141.611 81.6139C141.154 81.2152 140.475 81.2809 140.095 81.7605L134.342 89.0212L133.085 86.8785C132.773 86.3473 132.11 86.1815 131.603 86.5087C131.097 86.8359 130.939 87.5316 131.251 88.0627L133.294 91.545C133.681 92.2032 134.569 92.269 135.04 91.675Z" fill="#87DD60"/>
<path d="M131.251 102.369L133.295 105.851C133.681 106.509 134.569 106.575 135.039 105.981L141.751 97.5103C142.131 97.0305 142.069 96.3185 141.611 95.9197C141.154 95.521 140.475 95.5866 140.095 96.0664L134.342 103.327L133.084 101.184C132.773 100.653 132.11 100.487 131.603 100.814C131.097 101.142 130.939 101.838 131.251 102.369Z" fill="#87DD60"/>
<path d="M131.251 117.568L133.295 121.051C133.681 121.709 134.569 121.775 135.039 121.181L141.751 112.71C142.131 112.23 142.069 111.518 141.611 111.12C141.154 110.721 140.475 110.787 140.095 111.266L134.342 118.527L133.084 116.384C132.773 115.853 132.11 115.687 131.603 116.014C131.097 116.342 130.939 117.037 131.251 117.568Z" fill="#87DD60"/>
<path d="M180.875 121.896C180.254 121.896 179.75 122.392 179.75 123.005V131.08C179.75 132.018 178.976 132.781 178.025 132.781H125.975C125.024 132.781 124.25 132.018 124.25 131.08V82.4624C124.25 81.8496 123.746 81.353 123.125 81.353C122.504 81.353 122 81.8496 122 82.4624V131.08C122 133.242 123.783 135 125.975 135H178.025C180.217 135 182 133.242 182 131.08V123.005C182 122.392 181.496 121.896 180.875 121.896Z" fill="#D86565"/>
<path d="M178.025 67.582H172.522V62.9798C172.522 60.7854 170.719 59 168.502 59C166.285 59 164.482 60.7853 164.482 62.9798V67.582H156.02V62.9798C156.02 60.7853 154.217 59 152 59C149.783 59 147.98 60.7853 147.98 62.9798V67.582H139.518V62.9798C139.518 60.7854 137.715 59 135.498 59C133.282 59 131.478 60.7853 131.478 62.9798V67.582H125.975C123.783 67.582 122 69.3474 122 71.5173V77.0887C122 77.7039 122.504 78.2025 123.125 78.2025C123.746 78.2025 124.25 77.7039 124.25 77.0887V71.5173C124.25 70.5756 125.024 69.8095 125.975 69.8095H131.478V71.578C131.478 73.7724 133.281 75.5578 135.498 75.5578C137.715 75.5578 139.518 73.7725 139.518 71.578V69.8095H147.98V71.578C147.98 73.7724 149.783 75.5578 152 75.5578C154.217 75.5578 156.02 73.7725 156.02 71.578V69.8095H164.482V71.578C164.482 73.7724 166.285 75.5578 168.502 75.5578C170.719 75.5578 172.522 73.7725 172.522 71.578V69.8095H178.025C178.976 69.8095 179.75 70.5756 179.75 71.5173V117.792C179.75 118.407 180.254 118.906 180.875 118.906C181.496 118.906 182 118.407 182 117.792V71.5173C182 69.3474 180.217 67.582 178.025 67.582ZM137.268 71.578C137.268 72.5443 136.474 73.3303 135.498 73.3303C134.522 73.3303 133.728 72.5443 133.728 71.578C133.728 69.2039 133.728 63.7229 133.728 62.9798C133.728 62.0135 134.522 61.2275 135.498 61.2275C136.474 61.2275 137.268 62.0135 137.268 62.9798V71.578ZM153.77 71.578C153.77 72.5443 152.976 73.3303 152 73.3303C151.024 73.3303 150.23 72.5443 150.23 71.578C150.23 69.2039 150.23 63.7229 150.23 62.9798C150.23 62.0135 151.024 61.2275 152 61.2275C152.976 61.2275 153.77 62.0135 153.77 62.9798V71.578ZM170.272 71.578C170.272 72.5443 169.478 73.3303 168.502 73.3303C167.526 73.3303 166.732 72.5443 166.732 71.578C166.732 69.2039 166.732 63.7229 166.732 62.9798C166.732 62.0135 167.526 61.2275 168.502 61.2275C169.478 61.2275 170.272 62.0135 170.272 62.9798V71.578Z" fill="#D86565"/>
<path d="M146.452 92.0823H170.275C172.229 92.0823 173.818 90.6785 173.818 88.9529C173.818 87.2273 172.229 85.8235 170.275 85.8235H146.452C144.499 85.8235 142.909 87.2273 142.909 88.9529C142.909 90.6785 144.499 92.0823 146.452 92.0823ZM146.452 87.821H170.275C170.982 87.821 171.557 88.3287 171.557 88.9529C171.557 89.577 170.982 90.0848 170.275 90.0848H146.452C145.746 90.0848 145.171 89.577 145.171 88.9529C145.171 88.3287 145.746 87.821 146.452 87.821Z" fill="#D86565"/>
<path d="M146.452 107.282H170.275C172.229 107.282 173.818 105.678 173.818 103.706C173.818 101.734 172.229 100.13 170.275 100.13H146.452C144.499 100.13 142.909 101.734 142.909 103.706C142.909 105.678 144.499 107.282 146.452 107.282ZM146.452 102.412H170.275C170.982 102.412 171.557 102.993 171.557 103.706C171.557 104.419 170.982 105 170.275 105H146.452C145.746 105 145.171 104.419 145.171 103.706C145.171 102.993 145.746 102.412 146.452 102.412Z" fill="#D86565"/>
<path d="M146.452 121.588H170.275C172.229 121.588 173.818 120.184 173.818 118.459C173.818 116.733 172.229 115.329 170.275 115.329H146.452C144.499 115.329 142.909 116.733 142.909 118.459C142.909 120.184 144.499 121.588 146.452 121.588ZM146.452 117.327H170.275C170.982 117.327 171.557 117.835 171.557 118.459C171.557 119.083 170.982 119.591 170.275 119.591H146.452C145.746 119.591 145.171 119.083 145.171 118.459C145.171 117.835 145.746 117.327 146.452 117.327Z" fill="#D86565"/>
</g>
<defs>
<clipPath id="clip0">
<rect width="242" height="135" fill="white"/>
</clipPath>
</defs>
</svg>
