<svg width="30" height="30" viewBox="0 0 30 30" fill="none" xmlns="http://www.w3.org/2000/svg">
<g clip-path="url(#clip0)">
<path d="M29.1001 18.2877L26.3426 16.1314C26.4281 15.3789 26.4281 14.619 26.3426 13.8664L29.1026 11.709C29.6198 11.2924 29.7581 10.562 29.4289 9.98521L26.5601 5.0265C26.2297 4.44607 25.526 4.1926 24.9014 4.42902L21.6514 5.73654C21.0407 5.29345 20.3865 4.91359 19.6989 4.60281L19.2002 1.1503C19.1102 0.487494 18.5416 -0.00516029 17.8727 0.000288905H12.1227C11.4594 -0.00369545 10.8953 0.483451 10.8027 1.14028L10.3027 4.60275C9.61724 4.91652 8.9641 5.29667 8.35274 5.73777L5.09394 4.42773C4.47578 4.18404 3.77272 4.43447 3.4477 5.01396L0.576439 9.98146C0.238413 10.5592 0.377573 11.2976 0.902688 11.7127L3.66016 13.869C3.57385 14.6215 3.57385 15.3814 3.66016 16.134L0.900169 18.2902C0.382085 18.7062 0.243218 19.437 0.572689 20.014L3.4402 24.974C3.7702 25.5548 4.47432 25.8084 5.09892 25.5714L8.34893 24.2639C8.96018 24.7072 9.61478 25.0875 10.3027 25.3989L10.8026 28.8489C10.8907 29.51 11.4558 30.0029 12.1226 30.0002H17.8726C18.5372 30.0055 19.1031 29.5182 19.1963 28.8602L19.6963 25.3977C20.3818 25.0838 21.0348 24.7037 21.6463 24.2627L24.9088 25.574C25.527 25.8171 26.2297 25.5668 26.555 24.9877L29.435 20.0002C29.7575 19.4243 29.6157 18.6997 29.1001 18.2877ZM14.9977 21.2502C11.5459 21.2502 8.74766 18.452 8.74766 15.0002C8.74766 11.5484 11.5458 8.75018 14.9977 8.75018C18.4495 8.75018 21.2476 11.5484 21.2476 15.0002C21.2435 18.4503 18.4477 21.2461 14.9977 21.2502Z" fill="white"/>
</g>
<defs>
<clipPath id="clip0">
<rect width="30" height="30" fill="white"/>
</clipPath>
</defs>
</svg>
